<svg xmlns="http://www.w3.org/2000/svg" width="143.237" height="119.238" viewBox="0 0 143.237 119.238"><defs><style>.a,.b,.c{fill:none;}.a{stroke:#2f2e41;stroke-width:4px;}.d,.f{fill:#2f2e41;}.d{fill-rule:evenodd;}.e,.f{stroke:none;}</style></defs><g transform="translate(-702.246 -1260.693)"><g class="a" transform="translate(735.349 1269.618)"><ellipse class="e" cx="19.877" cy="51.686" rx="19.877" ry="51.686"/><ellipse class="c" cx="19.877" cy="51.686" rx="17.877" ry="49.686"/></g><g class="b" transform="matrix(0.53, -0.848, 0.848, 0.53, 703.264, 1312.728)"><path class="e" d="M16.163,1.744c8.665.833,17.483,21.925,19.7,47.111S32.843,93.783,24.178,92.95,6.695,71.025,4.481,45.839,7.5.911,16.163,1.744Z"/><path class="f" d="M 15.6368522644043 5.718902587890625 C 15.11777496337891 5.718902587890625 14.5278205871582 6.07562255859375 13.8834056854248 6.779182434082031 C 11.79220581054688 9.06219482421875 10.00862121582031 14.04568481445313 8.989944458007813 20.45182800292969 C 7.842144012451172 27.66995239257813 7.661022186279297 36.32764053344727 8.466129302978516 45.48893356323242 C 8.991020202636719 51.46176528930664 9.901559829711914 57.28976440429688 11.17240524291992 62.81104278564453 C 12.38916015625 68.09725952148438 13.87912940979004 72.86570739746094 15.60089874267578 76.98391723632813 C 19.42559051513672 86.13199615478516 23.03240585327148 88.82139587402344 24.5606517791748 88.96828460693359 C 24.61008262634277 88.97303771972656 24.65688323974609 88.97534942626953 24.70369720458984 88.97534942626953 C 25.22277450561523 88.97534942626953 25.81271362304688 88.61862945556641 26.45714378356934 87.91506958007813 C 28.5483283996582 85.63205718994141 30.33192825317383 80.64856719970703 31.35058975219727 74.24243927001953 C 32.49839019775391 67.02430725097656 32.67951202392578 58.36661148071289 31.87440490722656 49.2053337097168 C 31.34951400756836 43.23248672485352 30.43897438049316 37.40448760986328 29.16812896728516 31.88322448730469 C 27.95137405395508 26.59699249267578 26.46140670776367 21.82855224609375 24.7396354675293 17.71033477783203 C 20.91494369506836 8.562255859375 17.30812835693359 5.872856140136719 15.77988243103027 5.725967407226563 C 15.7304515838623 5.721214294433594 15.68366622924805 5.718902587890625 15.6368522644043 5.718902587890625 M 15.63684844970703 1.718902587890625 C 15.81110763549805 1.718902587890625 15.9854564666748 1.727287292480469 16.16262054443359 1.744316101074219 C 24.82729721069336 2.577178955078125 33.64569854736328 23.66942596435547 35.85905075073242 48.85516357421875 C 38.02716445922852 73.52592468261719 33.05197143554688 92.97534942626953 24.70369338989258 92.97534942626953 C 24.52943420410156 92.97534942626953 24.35507774353027 92.96696472167969 24.17791366577148 92.94993591308594 C 15.51323699951172 92.11707305908203 6.694835662841797 71.02482604980469 4.481483459472656 45.83910369873047 C 2.313369750976563 21.1683349609375 7.288570404052734 1.718902587890625 15.63684844970703 1.718902587890625 Z"/></g><g class="b" transform="translate(785.94 1280.365) rotate(56)"><path class="e" d="M13.522-1.386c10.876.6,20.992,23.473,22.595,51.081s-5.914,49.5-16.79,48.9S-1.665,75.118-3.268,47.51,2.646-1.989,13.522-1.386Z"/><path class="f" d="M 13.08432006835938 2.601974487304688 C 11.78482055664063 2.601974487304688 10.45292091369629 3.315177917480469 9.125621795654297 4.721771240234375 C 6.328887939453125 7.685623168945313 3.946455001831055 13.26354217529297 2.417221069335938 20.42800903320313 C 0.7452049255371094 28.261474609375 0.1600875854492188 37.5462760925293 0.7251548767089844 47.27864074707031 C 1.104570388793945 53.81319046020508 1.975437164306641 60.17414093017578 3.313570022583008 66.18484497070313 C 4.593921661376953 71.93587493896484 6.241336822509766 77.10862731933594 8.210103988647461 81.55941009521484 C 10.07507133483887 85.77557373046875 12.19712066650391 89.21182250976563 14.34680366516113 91.49665832519531 C 15.62020492553711 92.85012817382813 17.55630493164063 94.48672485351563 19.54827117919922 94.59719085693359 C 19.6204719543457 94.60118865966797 19.69327163696289 94.60322570800781 19.7646369934082 94.60322570800781 C 21.06413650512695 94.60322570800781 22.39602088928223 93.89002227783203 23.72332000732422 92.48342132568359 C 26.52007102966309 89.51959228515625 28.90248680114746 83.94167327880859 30.43172073364258 76.77719116210938 C 32.10373687744141 68.9437255859375 32.6888542175293 59.65893936157227 32.12378692626953 49.92657470703125 C 31.74437141418457 43.39202499389648 30.87350463867188 37.03105926513672 29.53536987304688 31.02037811279297 C 28.25503730773926 25.26932525634766 26.60760498046875 20.09657287597656 24.63885498046875 15.64579010009766 C 22.77387046813965 11.42962646484375 20.65183639526367 7.993377685546875 18.50215530395508 5.708541870117188 C 17.22873687744141 4.355072021484375 15.29263687133789 2.718475341796875 13.3006706237793 2.608009338378906 C 13.22847175598145 2.604011535644531 13.15567016601563 2.601974487304688 13.08432006835938 2.601974487304688 M 13.08431625366211 -1.398025512695313 C 13.22978210449219 -1.398025512695313 13.37540245056152 -1.393997192382813 13.52210426330566 -1.385856628417969 C 24.39802169799805 -0.7826919555664063 34.51412200927734 22.08687591552734 36.1170539855957 49.69472503662109 C 37.6983642578125 76.93017578125 30.40342903137207 98.60322570800781 19.7646369934082 98.60322570800781 C 19.61917114257813 98.60322570800781 19.47354125976563 98.59919738769531 19.32683753967285 98.59105682373047 C 8.450937271118164 97.98789215087891 -1.665180206298828 75.11832427978516 -3.268112182617188 47.51049041748047 C -4.849422454833984 20.27501678466797 2.445524215698242 -1.398025512695313 13.08431625366211 -1.398025512695313 Z"/></g><g transform="translate(810.416 1302.615)"><rect class="c" width="28.054" height="28.054"/><path class="d" d="M277.3,20.686a4.408,4.408,0,0,0,4.614-4.137,4.642,4.642,0,0,0-9.228,0A4.408,4.408,0,0,0,277.3,20.686ZM267.844,7.447a13.53,13.53,0,0,1,5.537-2.689L275.227,0h4.614l1.846,4.758a16.76,16.76,0,0,1,5.537,2.689l5.537-1.034,2.307,3.723-3.691,3.723a10.607,10.607,0,0,1,.231,2.689c0,.827-.231,1.862-.231,2.689l3.691,3.723-2.307,3.723-5.537-1.034a13.53,13.53,0,0,1-5.537,2.689L279.841,33.1h-4.614l-1.846-4.758a16.76,16.76,0,0,1-5.537-2.689l-5.537,1.034L260,22.961l3.691-3.723a10.605,10.605,0,0,1-.231-2.689c0-.827.231-1.862.231-2.689L260,10.136l2.307-3.723Z" transform="translate(-260)"/></g><g transform="translate(754.387 1349.693)"><path class="a" d="M-3904.75-5289.224v7.812h73.43s.641-22.974,0-28.238" transform="translate(3904.75 5309.649)"/></g><g transform="translate(754.387 1262.693)"><path class="a" d="M-3904.75-5301.837v-7.812h73.43s.641,22.974,0,28.238" transform="translate(3904.75 5309.649)"/></g></g></svg>